<?xml version="1.0" standalone="no"?>
<!DOCTYPE svg PUBLIC "-//W3C//DTD SVG 20010904//EN"
 "http://www.w3.org/TR/2001/REC-SVG-20010904/DTD/svg10.dtd">
<svg version="1.0" xmlns="http://www.w3.org/2000/svg"
 width="987.000000pt" height="299.000000pt" viewBox="0 0 987.000000 299.000000"
 preserveAspectRatio="xMidYMid meet">

<g transform="translate(0.000000,299.000000) scale(0.100000,-0.100000)"
fill="#000000" stroke="none">
<path d="M865 2748 c-176 -125 -302 -364 -279 -531 18 -133 128 -192 211 -115
29 26 73 113 73 143 0 41 -28 65 -74 65 -42 0 -44 -1 -64 -49 l-20 -49 44 -11
c49 -13 57 -27 18 -37 -55 -14 -120 74 -131 178 -9 89 16 156 87 232 33 35 74
69 91 76 36 15 51 4 92 -70 38 -68 56 -65 142 20 68 68 73 71 98 59 27 -12 67
-80 67 -113 0 -9 -5 -27 -11 -39 -10 -22 -10 -22 7 -2 9 11 28 44 41 73 30 63
27 111 -9 149 -53 57 -69 53 -159 -42 -28 -30 -60 -55 -70 -55 -11 0 -26 15
-38 39 -21 41 -69 101 -79 101 -4 0 -20 -10 -37 -22z"/>
<path d="M1344 2462 c-22 -16 -57 -54 -78 -85 -38 -55 -39 -56 -66 -42 -31 16
-73 63 -96 107 l-15 29 -30 -37 c-16 -20 -29 -47 -29 -59 0 -42 77 -128 132
-148 16 -6 14 -14 -17 -79 -18 -40 -35 -84 -37 -98 l-3 -25 125 3 c69 2 132 6
142 8 17 5 63 92 54 101 -3 3 -62 2 -131 -3 -70 -5 -128 -8 -130 -6 -1 2 4 21
13 43 14 37 17 39 61 39 104 0 179 48 226 144 29 59 24 91 -17 120 -33 23 -60
20 -104 -12z m54 -98 c31 -21 28 -32 -15 -43 -47 -13 -133 -14 -133 -2 0 5 14
21 31 35 35 30 83 34 117 10z"/>
<path d="M1785 2294 c-119 -30 -163 -60 -239 -163 -68 -90 -79 -123 -74 -211
4 -83 37 -137 111 -187 l47 -31 -58 -33 c-86 -48 -170 -106 -234 -160 -35 -31
-62 -47 -72 -43 -22 8 -72 87 -97 153 -32 85 -58 196 -71 298 -7 51 -15 90
-19 85 -12 -12 -29 -231 -29 -366 0 -70 -3 -126 -7 -124 -5 2 -75 43 -156 92
-81 48 -150 87 -152 85 -2 -2 19 -29 47 -59 212 -232 230 -265 236 -431 8
-232 -37 -346 -174 -437 -21 -14 -23 -15 111 16 45 10 120 16 210 16 121 0
148 -3 200 -22 32 -12 61 -22 63 -22 2 0 -10 17 -26 38 -108 139 -149 308
-104 437 37 106 166 297 278 410 58 59 65 64 89 55 38 -14 112 -12 144 4 64
33 164 174 201 282 56 161 -13 306 -150 318 -30 3 -64 2 -75 0z m99 -138 c62
-36 90 -95 84 -179 -8 -122 -58 -179 -165 -185 -53 -4 -72 0 -117 22 -67 33
-137 106 -161 169 -16 42 -16 49 -3 65 9 9 23 32 32 49 9 18 28 40 42 50 75
49 212 53 288 9z"/>
<path d="M1725 2023 c-30 -45 -31 -57 -6 -89 l20 -25 25 44 c29 49 31 64 12
90 -18 24 -22 22 -51 -20z"/>
<path d="M474 2121 c-10 -17 -22 -31 -27 -31 -4 0 -17 -9 -28 -19 -12 -11 -48
-34 -82 -52 -73 -39 -85 -51 -135 -149 -69 -132 -90 -226 -72 -317 28 -134 96
-203 202 -203 66 0 105 22 148 85 100 145 121 291 56 387 -27 41 -110 98 -143
98 -46 0 -102 -39 -149 -103 -25 -34 -48 -64 -51 -67 -10 -9 7 79 23 119 13
33 24 42 89 70 81 36 138 88 175 161 25 49 20 65 -6 21z m-64 -341 c74 -38
116 -122 108 -216 -4 -43 -11 -61 -34 -85 -27 -29 -33 -31 -90 -27 -111 7
-193 90 -202 205 -4 46 -1 58 19 80 60 65 128 79 199 43z"/>
<path d="M4872 1498 c-71 -11 -139 -47 -189 -101 -74 -80 -98 -153 -91 -284 9
-184 109 -306 273 -333 91 -15 171 6 228 58 l27 26 0 -37 0 -37 70 0 70 0 0
190 0 190 -142 0 -143 0 2 -67 c1 -38 2 -71 2 -76 1 -4 19 -5 41 -2 49 6 57
-6 27 -41 -19 -22 -34 -28 -78 -31 -110 -8 -164 54 -164 192 1 122 48 185 138
185 38 0 56 -13 105 -74 10 -13 32 -16 108 -16 l96 0 -7 33 c-10 47 -55 125
-88 153 -72 61 -178 87 -285 72z"/>
<path d="M7510 1496 c-31 -6 -77 -24 -103 -39 -132 -78 -193 -286 -135 -464
29 -89 106 -171 187 -198 140 -46 295 -3 356 99 l25 41 0 -72 c0 -66 2 -73 20
-73 19 0 20 7 20 170 l0 170 -150 0 c-127 0 -150 -2 -150 -15 0 -13 21 -15
130 -15 l130 0 0 -33 c0 -155 -131 -270 -288 -254 -168 18 -273 157 -259 347
7 98 29 158 78 214 71 80 179 112 280 82 71 -20 121 -64 155 -131 14 -30 33
-55 40 -55 42 0 -20 129 -83 173 -80 55 -159 72 -253 53z"/>
<path d="M9377 1499 c-102 -16 -177 -91 -177 -178 0 -100 52 -141 232 -185
182 -45 222 -68 237 -138 25 -116 -81 -199 -235 -185 -120 11 -199 74 -211
167 -4 30 -10 40 -24 40 -24 0 -25 -31 -4 -91 30 -85 99 -133 214 -149 198
-28 343 86 302 236 -21 77 -80 113 -244 150 -61 14 -130 35 -152 47 -112 62
-90 204 38 242 135 40 267 -14 296 -122 9 -32 17 -43 31 -43 11 0 20 6 20 14
0 29 -32 102 -57 128 -52 54 -163 82 -266 67z"/>
<path d="M6066 1485 c-111 -42 -185 -139 -208 -275 -29 -169 44 -335 177 -403
50 -25 138 -37 201 -27 114 19 191 78 243 189 23 50 26 68 26 171 0 103 -3
121 -26 171 -34 73 -85 128 -146 159 -60 31 -204 39 -267 15z m229 -39 c52
-22 112 -83 142 -144 25 -51 27 -68 28 -162 0 -122 -16 -169 -85 -244 -52 -56
-113 -81 -200 -81 -168 0 -284 132 -284 325 0 163 78 279 214 317 51 14 135 9
185 -11z"/>
<path d="M1970 1140 l0 -350 260 0 260 0 0 90 0 90 -155 0 -155 0 0 260 0 260
-105 0 -105 0 0 -350z"/>
<path d="M2580 1140 l0 -350 105 0 105 0 0 350 0 350 -105 0 -105 0 0 -350z"/>
<path d="M2840 1479 c0 -9 67 -238 196 -672 5 -16 18 -17 127 -15 l121 3 108
345 c59 190 108 346 108 348 0 1 -49 2 -110 2 l-109 0 -10 -37 c-6 -21 -31
-114 -55 -207 -25 -93 -47 -170 -49 -172 -2 -2 -23 67 -46 154 -23 86 -49 181
-57 210 l-15 52 -105 0 c-70 0 -104 -4 -104 -11z"/>
<path d="M3540 1140 l0 -350 105 0 105 0 0 350 0 350 -105 0 -105 0 0 -350z"/>
<path d="M3870 1140 l0 -350 100 0 100 0 2 189 3 190 105 -189 105 -190 108 0
107 0 0 350 0 350 -105 0 -105 0 -2 -182 -3 -183 -99 183 -99 182 -109 0 -108
0 0 -350z"/>
<path d="M5300 1470 c0 -19 7 -20 120 -20 l120 0 0 -330 c0 -323 0 -330 20
-330 12 0 20 7 20 18 0 9 0 158 0 330 l1 312 124 0 c118 0 125 1 125 20 0 19
-7 20 -265 20 -258 0 -265 -1 -265 -20z"/>
<path d="M6610 1140 c0 -343 0 -350 20 -350 19 0 20 7 21 268 0 147 0 291 -1
321 -1 34 2 51 9 47 5 -4 107 -148 226 -321 184 -269 220 -315 241 -315 l24 0
0 350 c0 343 0 350 -20 350 -19 0 -20 -8 -22 -321 l-3 -320 -220 320 c-199
290 -223 321 -247 321 l-28 0 0 -350z"/>
<path d="M8002 1228 c3 -224 6 -269 21 -302 48 -109 116 -150 242 -149 51 0
95 7 123 18 53 22 116 92 132 148 7 26 14 140 17 295 l5 252 -25 0 -26 0 -3
-267 c-3 -265 -3 -269 -28 -313 -32 -56 -90 -90 -169 -97 -105 -10 -175 28
-219 116 -26 55 -27 57 -30 306 -3 243 -3 250 -23 253 -21 4 -21 1 -17 -260z"/>
<path d="M8660 1140 l0 -350 241 0 c224 0 240 1 237 18 -3 15 -23 17 -221 20
l-218 2 3 150 3 150 200 3 c180 2 200 4 203 19 3 16 -13 18 -200 20 l-203 3
-3 138 -3 137 216 0 c208 0 215 1 215 20 0 19 -7 20 -235 20 l-235 0 0 -350z"/>
<path d="M1269 429 c-15 -6 -32 -23 -39 -39 -19 -45 6 -75 78 -96 69 -20 82
-29 82 -60 0 -27 -26 -44 -70 -44 -42 0 -69 16 -81 47 -7 19 -13 23 -20 16 -8
-8 -6 -20 7 -41 48 -81 212 -44 190 43 -7 27 -36 44 -116 67 -40 12 -45 16
-45 43 0 22 7 33 26 42 33 16 81 3 94 -25 5 -12 15 -22 22 -22 31 0 -1 48 -42
66 -39 16 -49 16 -86 3z"/>
<path d="M3430 427 c-94 -33 -99 -210 -6 -249 36 -15 86 -14 116 2 12 6 31 32
42 57 34 77 8 162 -59 189 -38 17 -47 17 -93 1z m79 -18 c18 -6 38 -24 46 -40
29 -55 11 -157 -30 -173 -9 -3 -33 -6 -54 -6 -50 0 -82 34 -88 94 -7 59 11
100 50 120 39 19 36 19 76 5z"/>
<path d="M5690 433 c-74 -24 -94 -61 -91 -161 1 -24 11 -44 35 -68 29 -29 41
-34 79 -34 30 0 53 7 71 21 l26 20 0 -20 c0 -12 5 -21 10 -21 6 0 10 28 10 65
l0 65 -55 0 c-30 0 -55 -4 -55 -10 0 -5 20 -10 45 -10 48 0 52 -5 34 -43 -15
-34 -48 -49 -94 -45 -106 8 -113 196 -9 222 32 8 90 -17 99 -43 3 -12 13 -21
21 -21 27 0 -14 60 -51 76 -36 14 -49 16 -75 7z"/>
<path d="M8115 432 c-60 -20 -85 -60 -85 -135 0 -54 3 -62 34 -93 29 -29 41
-34 79 -34 30 0 53 7 71 21 l26 20 0 -20 c0 -12 5 -21 10 -21 6 0 10 28 10 65
l0 65 -55 0 c-30 0 -55 -4 -55 -10 0 -5 20 -10 45 -10 25 0 45 -2 45 -4 0 -1
-5 -17 -10 -33 -14 -38 -46 -55 -95 -51 -106 9 -114 196 -10 222 33 8 91 -17
100 -43 7 -23 25 -29 25 -8 0 25 -32 56 -68 67 -41 11 -38 11 -67 2z"/>
<path d="M9004 425 c-34 -17 -61 -57 -64 -95 -6 -69 0 -92 34 -126 29 -29 41
-34 79 -34 30 0 53 7 71 21 l26 20 0 -20 c0 -12 5 -21 10 -21 6 0 10 28 10 65
l0 65 -55 0 c-30 0 -55 -4 -55 -10 0 -5 20 -10 45 -10 25 0 45 -2 45 -4 0 -1
-5 -17 -10 -33 -14 -38 -46 -55 -95 -51 -106 9 -114 196 -10 222 33 8 91 -17
100 -43 3 -12 13 -21 21 -21 13 0 12 4 -1 30 -26 50 -97 72 -151 45z"/>
<path d="M9580 427 c-13 -7 -31 -24 -39 -38 -23 -41 4 -74 77 -95 69 -20 82
-29 82 -60 0 -29 -27 -44 -78 -44 -41 0 -72 23 -72 53 0 9 -4 17 -9 17 -17 0
-22 -19 -12 -39 22 -41 41 -51 97 -51 45 0 59 4 79 25 50 49 27 87 -70 119
-65 21 -70 25 -70 52 0 54 94 69 117 18 6 -13 17 -24 25 -24 31 0 0 48 -42 66
-42 17 -53 17 -85 1z"/>
<path d="M790 300 c0 -80 4 -130 10 -130 6 0 10 50 10 130 0 80 -4 130 -10
130 -6 0 -10 -50 -10 -130z"/>
<path d="M920 300 c0 -80 4 -130 10 -130 6 0 10 44 10 112 l0 112 75 -109 c42
-61 82 -111 90 -113 13 -3 15 18 15 127 0 81 -4 131 -10 131 -6 0 -10 -42 -10
-106 0 -62 -4 -103 -9 -99 -5 3 -40 50 -77 105 -37 55 -74 100 -81 100 -10 0
-13 -29 -13 -130z"/>
<path d="M1480 420 c0 -5 20 -10 45 -10 l45 0 0 -120 c0 -73 4 -120 10 -120 6
0 10 47 10 120 l0 120 44 0 c25 0 48 5 51 10 4 6 -32 10 -99 10 -64 0 -106 -4
-106 -10z"/>
<path d="M1770 300 c0 -80 4 -130 10 -130 6 0 10 50 10 130 0 80 -4 130 -10
130 -6 0 -10 -50 -10 -130z"/>
<path d="M1870 420 c0 -5 20 -10 45 -10 l45 0 0 -120 c0 -73 4 -120 10 -120 6
0 10 47 10 120 l0 120 50 0 c28 0 50 5 50 10 0 6 -42 10 -105 10 -63 0 -105
-4 -105 -10z"/>
<path d="M2142 332 c2 -72 8 -106 21 -125 32 -48 116 -52 161 -7 17 17 21 36
24 125 4 92 2 105 -12 105 -14 0 -16 -14 -16 -98 0 -122 -11 -142 -75 -142
-64 0 -75 20 -75 142 0 84 -2 98 -16 98 -14 0 -16 -13 -12 -98z"/>
<path d="M2420 420 c0 -5 20 -10 45 -10 l45 0 0 -120 c0 -73 4 -120 10 -120 6
0 10 47 10 120 l0 120 44 0 c25 0 48 5 51 10 4 6 -32 10 -99 10 -64 0 -106 -4
-106 -10z"/>
<path d="M2710 300 l0 -130 90 0 c53 0 90 4 90 10 0 6 -33 10 -80 10 l-80 0 0
50 c0 33 4 50 13 51 6 1 37 2 67 3 83 2 78 20 -7 24 l-73 3 0 44 0 45 80 0
c47 0 80 4 80 10 0 6 -37 10 -90 10 l-90 0 0 -130z"/>
<path d="M3130 300 c0 -80 4 -130 10 -130 6 0 10 27 10 60 0 40 4 61 13 62 12
1 36 3 90 6 53 3 16 22 -44 22 l-59 0 0 45 0 45 70 0 c40 0 70 4 70 10 0 6
-33 10 -80 10 l-80 0 0 -130z"/>
<path d="M3690 300 c0 -80 4 -130 10 -130 6 0 10 27 10 60 l0 60 53 0 c69 0
88 -15 94 -73 3 -28 11 -47 18 -47 19 0 7 92 -14 110 -17 14 -17 15 2 31 29
23 27 77 -2 101 -18 14 -40 18 -97 18 l-74 0 0 -130z m154 94 c19 -18 20 -38
6 -65 -9 -16 -22 -19 -75 -19 l-65 0 0 50 0 50 59 0 c41 0 65 -5 75 -16z"/>
<path d="M4140 300 l0 -130 90 0 c53 0 90 4 90 10 0 6 -34 10 -81 10 l-80 0 3
53 3 52 63 1 c83 2 84 3 77 14 -3 6 -37 10 -76 10 l-69 0 0 45 0 45 80 0 c47
0 80 4 80 10 0 6 -37 10 -90 10 l-90 0 0 -130z"/>
<path d="M4410 300 c0 -80 4 -130 10 -130 6 0 10 44 10 112 l0 112 75 -109
c42 -61 82 -111 90 -113 13 -3 15 18 15 127 0 160 -18 179 -22 24 l-3 -108
-75 108 c-41 59 -80 107 -87 107 -10 0 -13 -30 -13 -130z"/>
<path d="M4720 299 l0 -132 68 5 c37 3 77 11 89 19 30 18 48 64 47 117 -2 86
-44 122 -144 122 l-60 0 0 -131z m133 100 c51 -23 65 -127 24 -175 -19 -22
-34 -28 -80 -32 l-57 -4 0 111 0 111 45 0 c24 0 55 -5 68 -11z"/>
<path d="M5045 313 c-26 -65 -49 -124 -52 -130 -3 -7 1 -13 9 -13 8 0 21 18
28 40 l13 40 62 0 62 0 16 -40 c15 -38 44 -59 33 -22 -31 95 -95 237 -108 240
-11 2 -28 -27 -63 -115z m100 -15 c7 -28 6 -28 -39 -28 -25 0 -46 4 -46 9 0 5
10 35 22 67 l22 58 17 -40 c10 -21 21 -51 24 -66z"/>
<path d="M5300 300 c0 -80 4 -130 10 -130 6 0 10 44 10 112 l0 112 75 -109
c42 -61 82 -111 90 -113 13 -3 15 18 15 127 0 160 -18 179 -22 24 l-3 -108
-75 108 c-41 59 -80 107 -87 107 -10 0 -13 -30 -13 -130z"/>
<path d="M5930 300 l0 -130 90 0 c53 0 90 4 90 10 0 6 -33 10 -80 10 l-80 0 0
49 c0 57 5 61 91 61 38 0 58 4 54 10 -3 6 -37 10 -76 10 l-69 0 0 45 0 45 80
0 c47 0 80 4 80 10 0 6 -37 10 -90 10 l-90 0 0 -130z"/>
<path d="M6190 300 c0 -80 4 -130 10 -130 6 0 10 27 10 60 l0 60 53 0 c69 0
88 -15 94 -73 3 -28 11 -47 18 -47 20 0 7 92 -16 111 -18 16 -18 17 2 30 29
20 29 77 -1 101 -17 14 -39 18 -96 18 l-74 0 0 -130z m154 94 c22 -21 20 -61
-3 -74 -11 -5 -45 -10 -75 -10 l-56 0 0 50 0 50 59 0 c41 0 65 -5 75 -16z"/>
<path d="M6490 300 l0 -130 90 0 c53 0 90 4 90 10 0 6 -33 10 -80 10 l-80 0 0
49 c0 57 5 61 91 61 38 0 58 4 54 10 -3 6 -37 10 -76 10 l-69 0 0 45 0 45 80
0 c47 0 80 4 80 10 0 6 -37 10 -90 10 l-90 0 0 -130z"/>
<path d="M6760 300 l0 -130 56 0 c103 0 147 41 147 136 0 87 -42 124 -143 124
l-60 0 0 -130z m139 95 c31 -16 41 -39 41 -102 0 -64 -31 -95 -103 -101 l-57
-4 0 111 0 111 45 0 c26 0 59 -7 74 -15z"/>
<path d="M7210 300 l0 -130 85 0 c50 0 85 4 85 10 0 6 -32 10 -75 10 l-75 0 0
120 c0 73 -4 120 -10 120 -6 0 -10 -50 -10 -130z"/>
<path d="M7485 313 c-26 -65 -49 -124 -52 -130 -3 -7 1 -13 9 -13 8 0 21 18
28 40 l13 40 63 0 63 0 12 -40 c7 -22 18 -40 26 -40 17 0 17 -1 -40 145 -27
68 -49 111 -59 113 -11 2 -28 -27 -63 -115z m100 -15 c7 -28 6 -28 -39 -28
-25 0 -46 4 -46 9 0 5 10 35 22 67 l22 58 17 -40 c10 -21 21 -51 24 -66z"/>
<path d="M7740 300 c0 -80 4 -130 10 -130 6 0 10 44 10 112 l0 112 78 -112
c42 -62 83 -112 90 -112 9 0 12 33 12 130 0 80 -4 130 -10 130 -6 0 -10 -42
-10 -106 0 -62 -4 -103 -9 -99 -5 3 -40 50 -77 105 -37 55 -74 100 -81 100
-10 0 -13 -29 -13 -130z"/>
<path d="M8360 353 c0 -137 25 -182 104 -185 43 -2 87 27 97 63 4 13 7 63 8
112 1 71 -2 87 -14 87 -12 0 -15 -18 -15 -98 0 -119 -11 -142 -71 -142 -67 0
-79 22 -79 140 0 82 -3 100 -15 100 -12 0 -15 -15 -15 -77z"/>
<path d="M8695 313 c-26 -65 -49 -124 -52 -130 -3 -7 1 -13 9 -13 8 0 21 18
28 40 l13 40 63 0 63 0 12 -40 c7 -22 18 -40 26 -40 17 0 17 -1 -40 145 -27
68 -49 111 -59 113 -11 2 -28 -27 -63 -115z m100 -15 c7 -28 6 -28 -39 -28
-25 0 -46 4 -46 9 0 5 10 35 22 67 l22 58 17 -40 c10 -21 21 -51 24 -66z"/>
<path d="M9270 300 l0 -130 90 0 c53 0 90 4 90 10 0 6 -33 10 -80 10 l-80 0 0
50 c0 33 4 50 13 51 6 1 37 2 67 3 83 2 78 20 -7 24 l-73 3 0 44 0 45 80 0
c47 0 80 4 80 10 0 6 -37 10 -90 10 l-90 0 0 -130z"/>
</g>
</svg>
